<svg fill="none" height="36" viewBox="0 0 36 36" width="36" xmlns="http://www.w3.org/2000/svg" xmlns:xlink="http://www.w3.org/1999/xlink"><mask id="a" height="14" maskUnits="userSpaceOnUse" width="14" x="11" y="11"><path clip-rule="evenodd" d="m17.4108 11.5774c-.3255.3254-.3255.8531 0 1.1785l4.4107 4.4107h-9.6548c-.4602 0-.8333.3731-.8333.8334 0 .4602.3731.8333.8333.8333h9.6548l-4.4107 4.4108c-.3255.3254-.3255.853 0 1.1785.3254.3254.8531.3254 1.1785 0l5.8333-5.8334c.1582-.1581.2394-.3639.2439-.5712.0003-.012.0003-.024 0-.0361-.0022-.1055-.0241-.2062-.0621-.2986-.0406-.0991-.1012-.192-.1818-.2726l-5.8333-5.8333c-.3254-.3254-.8531-.3254-1.1785 0z" fill="#fff" fill-rule="evenodd"/></mask><circle cx="18" cy="18" r="17.5" stroke="#464447"/><path clip-rule="evenodd" d="m17.4108 11.5774c-.3255.3254-.3255.8531 0 1.1785l4.4107 4.4107h-9.6548c-.4602 0-.8333.3731-.8333.8334 0 .4602.3731.8333.8333.8333h9.6548l-4.4107 4.4108c-.3255.3254-.3255.853 0 1.1785.3254.3254.8531.3254 1.1785 0l5.8333-5.8334c.1582-.1581.2394-.3639.2439-.5712.0003-.012.0003-.024 0-.0361-.0022-.1055-.0241-.2062-.0621-.2986-.0406-.0991-.1012-.192-.1818-.2726l-5.8333-5.8333c-.3254-.3254-.8531-.3254-1.1785 0z" fill="#212121" fill-rule="evenodd"/><g mask="url(#a)"><path d="m8 8h20v20h-20z" fill="#464447"/></g></svg>