<svg fill="none" height="84" viewBox="0 0 84 84" width="84" xmlns="http://www.w3.org/2000/svg" xmlns:xlink="http://www.w3.org/1999/xlink"><mask id="a" height="26" maskUnits="userSpaceOnUse" width="26" x="29" y="29"><path d="m54.2834 51.7167c.7334.7333.7334 1.8333 0 2.5666-.3666.3667-.7333.55-1.2833.55s-.9167-.1833-1.2833-.55l-9.7167-9.7166-9.7167 9.7166c-.3667.3667-.7333.55-1.2833.55s-.9167-.1833-1.2834-.55c-.7333-.7333-.7333-1.8333 0-2.5666l9.7167-9.7167-9.7167-9.7167c-.7333-.7333-.7333-1.8333 0-2.5666.7334-.7334 1.8334-.7334 2.5667 0l9.7167 9.7166 9.7167-9.7166c.7333-.7334 1.8333-.7334 2.5666 0 .7334.7333.7334 1.8333 0 2.5666l-9.7167 9.7167z" fill="#fff"/></mask><circle cx="42" cy="42" r="41.5" stroke="#fff"/><path d="m54.2834 51.7167c.7334.7333.7334 1.8333 0 2.5666-.3666.3667-.7333.55-1.2833.55s-.9167-.1833-1.2833-.55l-9.7167-9.7166-9.7167 9.7166c-.3667.3667-.7333.55-1.2833.55s-.9167-.1833-1.2834-.55c-.7333-.7333-.7333-1.8333 0-2.5666l9.7167-9.7167-9.7167-9.7167c-.7333-.7333-.7333-1.8333 0-2.5666.7334-.7334 1.8334-.7334 2.5667 0l9.7167 9.7166 9.7167-9.7166c.7333-.7334 1.8333-.7334 2.5666 0 .7334.7333.7334 1.8333 0 2.5666l-9.7167 9.7167z" fill="#fff"/><g mask="url(#a)"><path d="m20 20h44v44h-44z" fill="#fff"/></g></svg>