<svg fill="none" height="28" viewBox="0 0 28 28" width="28" xmlns="http://www.w3.org/2000/svg"><g fill="#fff"><path d="m14.0001 2.7054c3.6789 0 4.1142.01422 5.5672.08039 1.3432.06125 2.0727.28547 2.5583.47414.5991.2206 1.1411.57288 1.5859 1.03086.458.44484.8103.98681 1.0309 1.58594.1887.48562.4129 1.21516.4742 2.55828.0661 1.45305.0803 1.88839.0803 5.56719s-.0142 4.1141-.0803 5.5672c-.0613 1.3431-.2855 2.0726-.4742 2.5583-.2294.594-.5806 1.1334-1.0308 1.5837-.4503.4503-.9898.8014-1.5838 1.0309-.4856.1886-1.2152.4129-2.5583.4741-1.4525.0662-1.8883.0804-5.5672.0804-3.6788 0-4.11466-.0142-5.56716-.0804-1.34312-.0612-2.07265-.2855-2.55828-.4741-.59913-.2206-1.1411-.5729-1.58594-1.0309-.45797-.4448-.81025-.9868-1.03086-1.5859-.18867-.4856-.41289-1.2152-.47414-2.5583-.06617-1.453-.08039-1.8884-.08039-5.5672s.01422-4.11413.08039-5.56718c.06125-1.34312.28547-2.07265.47414-2.55828.22061-.59913.57289-1.1411 1.03086-1.58594.44484-.45797.98681-.81025 1.58594-1.03086.48563-.18867 1.21516-.41289 2.55828-.47414 1.45305-.06617 1.88836-.08039 5.56716-.08039zm.0022-2.484453c-3.7417 0-4.21091.01586-5.68036.083125-1.46945.067266-2.47024.301875-3.34524.642032-.91951.346146-1.75258.888456-2.44125 1.589216-.70076.68867-1.24307 1.52174-1.589215 2.44125-.340156.875-.573125 1.87797-.639843 3.34414-.066719 1.46618-.083125 1.93759-.083125 5.67929s.015859 4.2109.083125 5.6804c.067265 1.4695.299687 2.468.639843 3.343.346285.9192.888595 1.7519 1.589215 2.4402.68844.7012 1.52156 1.2437 2.44125 1.5898.875.3407 1.87797.5736 3.34414.6404 1.46618.0667 1.93866.0831 5.68036.0831 3.7418 0 4.211-.0159 5.6804-.0831 1.4695-.0673 2.467-.2997 3.342-.6404.9155-.3538 1.7469-.895 2.4409-1.589s1.2353-1.5254 1.589-2.441c.3407-.875.5737-1.8779.6404-3.3441s.0831-1.9387.0831-5.6804-.0158-4.21092-.0831-5.68037c-.0673-1.46946-.2997-2.46696-.6404-3.34196-.3459-.9192-.888-1.75193-1.5887-2.44015-.6885-.70116-1.5216-1.24385-2.4412-1.590316-.875-.340157-1.878-.573125-3.3442-.639844-1.4661-.066719-1.9375-.083125-5.6793-.083125z"/><path d="m13.9999 6.92554c-1.3992 0-2.7669.4149-3.9303 1.19224-1.16337.77735-2.07011 1.88221-2.60555 3.17492-.53545 1.2926-.67554 2.7151-.40258 4.0874.27297 1.3722.94674 2.6328 1.93611 3.6222.98937.9893 2.24992 1.6631 3.62222 1.9361 1.3723.2729 2.7947.1328 4.0874-.4026 1.2926-.5355 2.3975-1.4422 3.1748-2.6056.7774-1.1634 1.1923-2.5311 1.1923-3.9303.0001-.929-.1829-1.849-.5384-2.7073-.3555-.8584-.8766-1.63826-1.5335-2.29519s-1.4368-1.17802-2.2952-1.53351c-.8583-.3555-1.7782-.53843-2.7073-.53836zm0 11.66816c-.9085 0-1.7967-.2695-2.5521-.7742-.7555-.5048-1.3443-1.2222-1.69196-2.0616-.34769-.8394-.43866-1.7631-.26141-2.6542s.61477-1.7096 1.25717-2.3521c.6425-.6424 1.461-1.07992 2.3521-1.25717s1.8148-.08628 2.6542.26141c.8394.34766 1.5568.93646 2.0616 1.69196.5047.7554.7742 1.6436.7742 2.5521 0 1.2184-.484 2.3868-1.3455 3.2483s-2.0299 1.3455-3.2483 1.3455z"/><path d="m21.3544 8.29884c.913 0 1.6532-.74016 1.6532-1.6532s-.7402-1.65321-1.6532-1.65321c-.9131 0-1.6532.74017-1.6532 1.65321s.7401 1.6532 1.6532 1.6532z"/></g></svg>