<svg fill="none" height="28" viewBox="0 0 74 28" width="74" xmlns="http://www.w3.org/2000/svg"><g fill="#3e5742"><path d="m0 8.03961c0 4.73059 3.62991 8.03959 8.46979 8.03959 4.83991 0 8.44611-3.309 8.44611-8.03959 0-4.73056-3.6062-8.03961-8.44611-8.03961-4.83988 0-8.46979 3.30905-8.46979 8.03961zm12.764 0c0 2.51669-1.6845 4.49749-4.29421 4.49749-2.63346 0-4.31793-1.9808-4.31793-4.49749 0-2.54005 1.68447-4.49752 4.31793-4.49752 2.60971 0 4.29421 1.95747 4.29421 4.49752z"/><path d="m18.971 15.7996h10.439v-3.4955h-6.3583v-12.047765h-4.0807z"/><path d="m30.1427 8.03961c0 4.73059 3.6299 8.03959 8.4698 8.03959 4.8398 0 8.446-3.309 8.446-8.03959 0-4.73056-3.6062-8.03961-8.446-8.03961-4.8399 0-8.4698 3.30905-8.4698 8.03961zm12.764 0c0 2.51669-1.6845 4.49749-4.2942 4.49749-2.6335 0-4.318-1.9808-4.318-4.49749 0-2.54005 1.6845-4.49752 4.318-4.49752 2.6097 0 4.2942 1.95747 4.2942 4.49752z"/><path d="m62.9928 15.7996h4.0806v-15.543265h-5.6702l-3.3215 8.808615-3.2978-8.808615h-5.6702v15.543265h4.0807v-10.48647l3.9858 10.48647h1.803l4.0096-10.48647z"/><path d="m69.9193 15.7996h4.0807v-15.543265h-4.0807z"/><path d="m5.15295 27.88h1.48458l-2.46153-6.1547h-1.70488l-2.47112 6.1547h1.49416l.40228-1.0611h2.85423zm-1.82939-5.0197 1.05357 2.8236h-2.11673z"/><path d="m7.22748 27.88h1.36007v-2.5652h3.09365v-1.1258h-3.09365v-1.338h3.16075v-1.1257h-4.52082z"/><path d="m12.3928 24.8073c0 1.9378 1.5324 3.1927 3.2756 3.1927 2.0497 0 3.2853-1.3288 3.2853-3.5157h-3.4864v1.1258h2.0018c-.1724.6459-.7375 1.218-1.6761 1.218-1.159 0-2.0018-.8582-2.0018-2.0208 0-1.1627.8428-2.0209 2.0018-2.0209.6704 0 1.2164.3415 1.5133.7751l1.1302-.5905c-.4885-.729-1.3218-1.3472-2.6435-1.3472-1.8678 0-3.4002 1.2365-3.4002 3.1835z"/><path d="m24.2038 27.88h1.3696v-6.1547h-1.3696v2.4176h-3.0171v-2.4176h-1.3601v6.1547h1.3601v-2.5837h3.0171z"/><path d="m31.3053 27.88h1.4846l-2.4616-6.1547h-1.7048l-2.4712 6.1547h1.4942l.4023-1.0611h2.8542zm-1.8294-5.0197 1.0536 2.8236h-2.1167z"/><path d="m37.7857 27.88h1.3122v-6.1547h-1.3601v3.9863l-2.9596-3.9863h-1.3984v6.1547h1.3601v-4.1339z"/><path d="m47.2811 27.88h1.4845l-2.4615-6.1547h-1.7049l-2.4711 6.1547h1.4942l.4022-1.0611h2.8543zm-1.8294-5.0197 1.0535 2.8236h-2.1167z"/><path d="m52.9665 27.88h1.5612l-1.4367-2.3438c.6896-.1568 1.3984-.7382 1.3984-1.827 0-1.1442-.8141-1.9839-2.1455-1.9839h-2.9883v6.1547h1.3601v-2.2053h.9961zm.1341-4.18c0 .5167-.4119.8489-.9578.8489h-1.4271v-1.6979h1.4271c.5459 0 .9578.3322.9578.849z"/><path d="m56.8916 27.88h1.3697v-5.0013h1.8581v-1.1534h-5.0955v1.1534h1.8677z"/><path d="m60.9913 27.88h1.3601v-6.1547h-1.3601z"/><path d="m63.1886 27.0127c.5939.5813 1.4751.9781 2.701.9781 1.7241 0 2.5574-.849 2.5574-1.9747 0-1.3657-1.341-1.6702-2.3945-1.9009-.7376-.1661-1.2739-.2953-1.2739-.7105 0-.3691.3256-.6275.9386-.6275.6226 0 1.3122.2122 1.8294.6736l.7567-.9596c-.6322-.5629-1.475-.8582-2.4903-.8582-1.5037 0-2.4232.8305-2.4232 1.8547 0 1.3749 1.3409 1.6518 2.3849 1.8824.7375.1661 1.293.323 1.293.7844 0 .3506-.3639.6921-1.111.6921-.8812 0-1.5804-.3784-2.0306-.8305z"/><path d="m70.7722 27.88h1.3697v-5.0013h1.8581v-1.1534h-5.0955v1.1534h1.8677z"/></g></svg>