<svg fill="none" height="14" viewBox="0 0 14 14" width="14" xmlns="http://www.w3.org/2000/svg"><path clip-rule="evenodd" d="m6.41042.57741c-.32544.325437-.32544.85307 0 1.17851l4.41078 4.41075h-9.65486c-.460236 0-.833332.37309-.833332.83333s.373096.83333.833332.83333h9.65486l-4.41078 4.41077c-.32544.3254-.32544.853 0 1.1785.32544.3254.85307.3254 1.17851 0l5.83337-5.83335c.1581-.15812.2394-.36398.2438-.57118.0003-.01205.0003-.0241 0-.03614-.0022-.10552-.0241-.20621-.062-.29857-.0407-.09917-.1013-.19209-.1818-.27262l-5.83337-5.83333c-.32544-.325437-.85307-.325437-1.17851 0z" fill="#212121" fill-rule="evenodd"/></svg>