<svg fill="none" height="48" viewBox="0 0 48 48" width="48" xmlns="http://www.w3.org/2000/svg" xmlns:xlink="http://www.w3.org/1999/xlink"><mask id="a" height="32" maskUnits="userSpaceOnUse" width="32" x="8" y="8"><path clip-rule="evenodd" d="m22.6251 9.01409c-.7594.75936-.7594 1.99051 0 2.74991l10.2917 10.2917h-22.5279c-1.07392 0-1.94447.8705-1.94447 1.9444s.87055 1.9445 1.94447 1.9445h22.5279l-10.2917 10.2917c-.7594.7594-.7594 1.9905 0 2.7499.7593.7593 1.9905.7593 2.7498 0l13.6111-13.6111c.3682-.3682.5578-.8473.569-1.3297.0007-.0312.0007-.0625-.0001-.0937-.0059-.2418-.0559-.4727-.1424-.6849-.0949-.2335-.2371-.4522-.4265-.6416l-13.6111-13.61111c-.7593-.75935-1.9905-.75935-2.7498 0z" fill="#fff" fill-rule="evenodd"/></mask><path clip-rule="evenodd" d="m22.6251 9.01409c-.7594.75936-.7594 1.99051 0 2.74991l10.2917 10.2917h-22.5279c-1.07392 0-1.94447.8705-1.94447 1.9444s.87055 1.9445 1.94447 1.9445h22.5279l-10.2917 10.2917c-.7594.7594-.7594 1.9905 0 2.7499.7593.7593 1.9905.7593 2.7498 0l13.6111-13.6111c.3682-.3682.5578-.8473.569-1.3297.0007-.0312.0007-.0625-.0001-.0937-.0059-.2418-.0559-.4727-.1424-.6849-.0949-.2335-.2371-.4522-.4265-.6416l-13.6111-13.61111c-.7593-.75935-1.9905-.75935-2.7498 0z" fill="#212121" fill-rule="evenodd"/><g mask="url(#a)"><path d="m.666656.666748h46.6667v46.6667h-46.6667z" fill="#464447"/></g></svg>