<svg fill="none" height="26" viewBox="0 0 26 26" width="26" xmlns="http://www.w3.org/2000/svg"><path clip-rule="evenodd" d="m.166992 13.0003c0-7.11664 5.716668-12.833308 12.833308-12.833308 7.1167 0 12.8334 5.716668 12.8334 12.833308 0 7.1167-5.7167 12.8334-12.8334 12.8334-7.11664 0-12.833308-5.7167-12.833308-12.8334zm2.333338 0c0 5.8334 4.66666 10.5 10.49997 10.5 5.8334 0 10.5-4.6666 10.5-10.5 0-5.83331-4.6666-10.49997-10.5-10.49997-5.83331 0-10.49997 4.66666-10.49997 10.49997zm15.86667-.9333-7-4.66667c-.35-.23334-.8167-.23334-1.1667 0-.46664.11666-.69997.46666-.69997.93333v9.33334c0 .4667.23333.8167.58337 1.05.2333.1167.35.1167.5833.1167s.4667-.1167.7-.2334l7-4.6666c.35-.2334.4667-.5834.4667-.9334s-.2334-.7-.4667-.9333zm-2.8.9333-3.7333-2.45v4.9z" fill="#fff" fill-rule="evenodd"/></svg>