<svg fill="none" height="14" viewBox="0 0 14 14" width="14" xmlns="http://www.w3.org/2000/svg"><path clip-rule="evenodd" d="m7.58958 13.4227c.32544-.3255.32544-.8531 0-1.1785l-4.41075-4.41078 9.65487-.00001c.4602 0 .8333-.37309.8333-.83333s-.3731-.83333-.8333-.83333h-9.65486l4.41074-4.41074c.32544-.32544.32544-.853077 0-1.178514-.32544-.325436-.85308-.325436-1.17851 0l-5.833334 5.833334c-.158123.15812-.239417.36398-.243883.57118-.000259.01205-.000259.0241 0 .03614.002245.10552.024101.20621.062071.29857.040675.09917.101279.19209.181812.27262l5.833334 5.83336c.32544.3254.85307.3254 1.17851 0z" fill="#212121" fill-rule="evenodd"/></svg>