<svg fill="none" height="48" viewBox="0 0 48 48" width="48" xmlns="http://www.w3.org/2000/svg" xmlns:xlink="http://www.w3.org/1999/xlink"><mask id="a" height="32" maskUnits="userSpaceOnUse" width="32" x="8" y="8"><path clip-rule="evenodd" d="m25.3749 38.9861c.7594-.7593.7594-1.9905 0-2.7498l-10.2917-10.2917h22.5279c1.0739 0 1.9444-.8706 1.9444-1.9445s-.8705-1.9444-1.9444-1.9444h-22.5279l10.2917-10.2918c.7594-.7593.7594-1.99047 0-2.74982-.7593-.75936-1.9905-.75936-2.7498 0l-13.61115 13.61112c-.36816.3681-.55782.8472-.56899 1.3296-.00073.0313-.0007.0625.00007.0937.00591.2419.05598.4728.14245.685.09492.2334.23707.4521.42647.6415l13.61115 13.6111c.7593.7594 1.9905.7594 2.7498 0z" fill="#fff" fill-rule="evenodd"/></mask><path clip-rule="evenodd" d="m25.3749 38.9861c.7594-.7593.7594-1.9905 0-2.7498l-10.2917-10.2917h22.5279c1.0739 0 1.9444-.8706 1.9444-1.9445s-.8705-1.9444-1.9444-1.9444h-22.5279l10.2917-10.2918c.7594-.7593.7594-1.99047 0-2.74982-.7593-.75936-1.9905-.75936-2.7498 0l-13.61115 13.61112c-.36816.3681-.55782.8472-.56899 1.3296-.00073.0313-.0007.0625.00007.0937.00591.2419.05598.4728.14245.685.09492.2334.23707.4521.42647.6415l13.61115 13.6111c.7593.7594 1.9905.7594 2.7498 0z" fill="#212121" fill-rule="evenodd"/><g mask="url(#a)"><path d="m47.3333 47.3335h46.6667v46.6667h-46.6667z" fill="#464447" transform="matrix(-1 0 0 -1 94.6666 94.667)"/></g></svg>